Coordinates
version=1
nRows=10
nColumns=22
inDegrees=yes

Units are S.I. units (second, meters, Newtons, ...)
If the header above contains a line with 'inDegrees', this indicates whether rotational values are in degrees (yes) or radians (no).

endheader
time	pelvis_tilt	pelvis_list	pelvis_rotation	pelvis_tx	pelvis_ty	pelvis_tz	hip_flexion_r	hip_adduction_r	hip_rotation_r	knee_angle_r	ankle_angle_r	subtalar_angle_r	hip_flexion_l	hip_adduction_l	hip_rotation_l	knee_angle_l	ankle_angle_l	subtalar_angle_l	lumbar_extension	lumbar_bending	lumbar_rotation
      5.73000000	     -2.04063479	      5.09541661	   -472.47735868	      0.95383814	      0.93390338	      0.73679830	     32.67107564	     -2.43807923	    -30.54129187	    -29.06326661	      0.57501006	     -5.28604562	    172.11109595	   -170.15050685	   -175.85497492	    -30.49330810	      5.97709631	     20.57433868	     -0.26026234	      9.93204793	    345.68408121
      5.74000000	     -1.87573098	      5.11467172	   -473.23256608	      0.94609586	      0.93535885	      0.74448044	     32.38292324	     -1.99175985	    -29.77601408	    -29.36230709	      0.93101294	     -5.66849342	    173.12730141	   -170.32641986	   -175.69202103	    -32.90606434	      4.59286420	     20.36190329	     -0.21268144	      9.87127562	    345.90387447
      5.75000000	     -1.73149100	      5.11488614	   -473.97362785	      0.93837398	      0.93682366	      0.75198448	     32.02595149	     -1.52475109	    -29.03010596	    -29.58757461	      1.32060748	     -6.02364557	    174.22068281	   -170.49294623	   -175.52470799	    -35.40210139	      3.31530668	     19.88483665	     -0.19416730	      9.80750496	    346.10386426
      5.76000000	     -1.63066429	      5.09756292	   -474.70174449	      0.93066323	      0.93830015	      0.75932330	     31.59190953	     -1.02694100	    -28.32741381	    -29.74918029	      1.73492887	     -6.31616832	    175.35572343	   -170.62470778	   -175.36389588	    -37.92349400	      2.17743607	     19.14093594	     -0.21033997	      9.76337810	    346.29741870
      5.77000000	     -1.57321825	      5.08586580	   -475.41921413	      0.92295891	      0.93975109	      0.76647234	     31.10046857	     -0.48146168	    -27.64203548	    -29.83604088	      2.18908156	     -6.53428116	    176.53501520	   -170.70958203	   -175.20091279	    -40.42340027	      1.25363595	     18.20028007	     -0.23907089	      9.74646824	    346.47747636
      5.78000000	     -1.54930613	      5.10244319	   -476.11014113	      0.91529292	      0.94113405	      0.77342316	     30.59012463	      0.08520781	    -27.02718446	    -29.88039367	      2.66297775	     -6.68949998	    177.78584045	   -170.73858284	   -175.02594015	    -42.87750309	      0.58966485	     17.18167585	     -0.25060806	      9.75736063	    346.63389813
      5.79000000	     -1.59091777	      5.11210521	   -476.81425574	      0.90757237	      0.94253810	      0.78019914	     29.99248308	      0.72697867	    -26.41582427	    -29.83845850	      3.13531457	     -6.79923766	    179.00581907	   -170.69663011	   -174.87379270	    -45.20485743	      0.21214254	     15.99101076	     -0.29876630	      9.80943777	    346.81445505
      5.80000000	     -1.66833502	      5.14404141	   -477.50931068	      0.89984074	      0.94390366	      0.78677188	     29.36187470	      1.40542862	    -25.84698699	    -29.73781920	      3.60585658	     -6.87749516	    180.25103377	   -170.59110676	   -174.72034458	    -47.40056364	      0.13057990	     14.77219823	     -0.33980645	      9.88510838	    346.98816577
      5.81000000	     -1.77769591	      5.18988834	   -478.20532079	      0.89207702	      0.94525833	      0.79316488	     28.68494713	      2.12455393	    -25.29455445	    -29.56334499	      4.06315800	     -6.93959799	    181.49370469	   -170.43502972	   -174.55672568	    -49.42753466	      0.30413727	     13.50383540	     -0.37721237	      9.97803091	    347.16955856
      5.82000000	     -1.90877564	      5.24099790	   -478.91116687	      0.88426553	      0.94661082	      0.79936811	     27.96162002	      2.87442204	    -24.74667789	    -29.32074542	      4.49792861	     -6.99750901	    182.71873915	   -170.24149970	   -174.38714894	    -51.26082685	      0.67291345	     12.20440172	     -0.41799370	     10.07180464	    347.36519837
